<svg width="18" height="18" viewBox="0 0 18 18" version="1.1" xmlns="http://www.w3.org/2000/svg" xmlns:xlink="http://www.w3.org/1999/xlink">
<title>Vector</title>
<desc>Created using Figma</desc>
<g id="Canvas" transform="translate(-1743 316)">
<rect x="1743" y="-316" width="18" height="18" fill="#989898"/>
<clipPath id="clip-0" clip-rule="evenodd">
<path d="M 1408 -343L 2308 -343L 2308 257L 1408 257L 1408 -343Z" fill="#FFFFFF"/>
</clipPath>
<g id="1" clip-path="url(#clip-0)">
<path d="M 1408 -343L 2308 -343L 2308 257L 1408 257L 1408 -343Z" fill="#FFFFFF"/>
<g id="search">
<g id="icon_search">
<g id="Vector">
<use xlink:href="#path0_fill" transform="translate(1743 -316)" fill="#828282"/>
</g>
</g>
</g>
</g>
</g>
<defs>
<path id="path0_fill" d="M 12.5 11L 11.71 11L 11.43 10.73C 12.41 9.59 13 8.11 13 6.5C 13 2.91 10.09 0 6.5 0C 2.91 0 0 2.91 0 6.5C 0 10.09 2.91 13 6.5 13C 8.11 13 9.59 12.41 10.73 11.43L 11 11.71L 11 12.5L 16 17.49L 17.49 16L 12.5 11ZM 6.5 11C 4.01 11 2 8.99 2 6.5C 2 4.01 4.01 2 6.5 2C 8.99 2 11 4.01 11 6.5C 11 8.99 8.99 11 6.5 11Z"/>
</defs>
</svg>
