<svg width="14" height="17" viewBox="0 0 14 17" version="1.1" xmlns="http://www.w3.org/2000/svg" xmlns:xlink="http://www.w3.org/1999/xlink">
<title>Vector</title>
<desc>Created using Figma</desc>
<g id="Canvas" transform="translate(-5049 316)">
<rect x="5049" y="-316" width="14" height="17" fill="#989898"/>
<clipPath id="clip-0" clip-rule="evenodd">
<path d="M 4200 -343L 5100 -343L 5100 257L 4200 257L 4200 -343Z" fill="#FFFFFF"/>
</clipPath>
<g id="4" clip-path="url(#clip-0)">
<path d="M 4200 -343L 5100 -343L 5100 257L 4200 257L 4200 -343Z" fill="#FFFFFF"/>
<g id="Rectangle 4" filter="url(#filter0_d)">
<use xlink:href="#path0_fill" transform="translate(4200 -343)" fill="#E0E0E0"/>
</g>
<g id="ic_file_upload_black_24px">
<g id="Vector">
<use xlink:href="#path1_fill" transform="translate(5049 -316)" fill="#535353"/>
</g>
</g>
</g>
</g>
<defs>
<filter id="filter0_d" filterUnits="userSpaceOnUse" x="4196" y="-345" width="908" height="80" color-interpolation-filters="sRGB">
<feFlood flood-opacity="0" result="BackgroundImageFix"/>
<feColorMatrix in="SourceAlpha" type="matrix" values="0 0 0 0 0 0 0 0 0 0 0 0 0 0 0 0 0 0 255 0"/>
<feOffset dx="0" dy="2"/>
<feGaussianBlur stdDeviation="2"/>
<feColorMatrix type="matrix" values="0 0 0 0 0 0 0 0 0 0 0 0 0 0 0 0 0 0 0.16 0"/>
<feBlend mode="normal" in2="BackgroundImageFix" result="effect1_dropShadow"/>
<feBlend mode="normal" in="SourceGraphic" in2="effect1_dropShadow" result="shape"/>
</filter>
<path id="path0_fill" d="M 0 0L 900 0L 900 72L 0 72L 0 0Z"/>
<path id="path1_fill" d="M 4 13L 10 13L 10 7L 14 7L 7 0L 0 7L 4 7L 4 13ZM 0 15L 14 15L 14 17L 0 17L 0 15Z"/>
</defs>
</svg>
